<svg width="95" height="29" viewBox="0 0 95 29" fill="none" xmlns="http://www.w3.org/2000/svg">
<path d="M10.7111 27.4723V23.6228H5.94825C-3.04821 21.2898 -0.108185 12.191 3.53743 10.8495C4.24305 -4.37371 23.412 -2.33231 24 9.27473V21.2898C23.4355 23.6694 21.5695 24.381 20.7072 24.4393H15.8267L11.9459 27.9389C11.0521 28.3122 10.7503 27.7834 10.7111 27.4723Z" fill="url(#paint0_linear_200_54)"/>
<path d="M8.93743 12.2484H6.23261C5.97281 12.2484 5.76221 12.4573 5.76221 12.715V19.0141C5.76221 19.2718 5.97281 19.4807 6.23261 19.4807H8.93743C9.19723 19.4807 9.40784 19.2718 9.40784 19.0141V12.715C9.40784 12.4573 9.19723 12.2484 8.93743 12.2484Z" fill="white"/>
<path d="M8.93775 12.365H6.23293C6.03808 12.365 5.88013 12.5217 5.88013 12.715V19.0141C5.88013 19.2074 6.03808 19.3641 6.23293 19.3641H8.93775C9.1326 19.3641 9.29055 19.2074 9.29055 19.0141V12.715C9.29055 12.5217 9.1326 12.365 8.93775 12.365Z" stroke="url(#paint1_linear_200_54)" stroke-opacity="0.4" stroke-width="2"/>
<path d="M13.9944 9.21542H11.4072C11.1474 9.21542 10.9368 9.42433 10.9368 9.68203V19.0141C10.9368 19.2718 11.1474 19.4807 11.4072 19.4807H13.9944C14.2542 19.4807 14.4648 19.2718 14.4648 19.0141V9.68203C14.4648 9.42433 14.2542 9.21542 13.9944 9.21542Z" fill="white"/>
<path d="M13.9947 9.33211H11.4075C11.2126 9.33211 11.0547 9.48879 11.0547 9.68206V19.0141C11.0547 19.2074 11.2126 19.3641 11.4075 19.3641H13.9947C14.1896 19.3641 14.3475 19.2074 14.3475 19.0141V9.68206C14.3475 9.48879 14.1896 9.33211 13.9947 9.33211Z" stroke="url(#paint2_linear_200_54)" stroke-opacity="0.4" stroke-width="2"/>
<path d="M19.4042 5.48261H16.5817C16.3219 5.48261 16.1113 5.69152 16.1113 5.94922V19.0141C16.1113 19.2718 16.3219 19.4807 16.5817 19.4807H19.4042C19.664 19.4807 19.8746 19.2718 19.8746 19.0141V5.94922C19.8746 5.69152 19.664 5.48261 19.4042 5.48261Z" fill="white"/>
<path d="M19.404 5.59926H16.5816C16.3867 5.59926 16.2288 5.75594 16.2288 5.94921V19.0141C16.2288 19.2074 16.3867 19.3641 16.5816 19.3641H19.404C19.5988 19.3641 19.7568 19.2074 19.7568 19.0141V5.94921C19.7568 5.75594 19.5988 5.59926 19.404 5.59926Z" stroke="url(#paint3_linear_200_54)" stroke-opacity="0.4" stroke-width="2"/>
<path d="M32.3279 17.308L32.3339 14.357H32.7078L35.6749 10.9903H38.624L34.6377 15.4485H34.0286L32.3279 17.308ZM30 19.8604V8.03362H32.5691V19.8604H30ZM35.7896 19.8604L33.0636 15.9971L34.7764 14.2589L38.7989 19.8604H35.7896ZM43.6884 20.0336C42.7517 20.0336 41.9415 19.8431 41.258 19.462C40.5786 19.0769 40.0539 18.5418 39.6839 17.8566C39.3141 17.1674 39.1292 16.3686 39.1292 15.46C39.1292 14.5437 39.3141 13.743 39.6839 13.0576C40.0539 12.3686 40.5786 11.8334 41.258 11.4523C41.9415 11.0673 42.7517 10.8748 43.6884 10.8748C44.6252 10.8748 45.4333 11.0673 46.1128 11.4523C46.7963 11.8334 47.323 12.3686 47.6928 13.0576C48.0628 13.743 48.2477 14.5437 48.2477 15.46C48.2477 16.3686 48.0628 17.1674 47.6928 17.8566C47.323 18.5418 46.7963 19.0769 46.1128 19.462C45.4333 19.8431 44.6252 20.0336 43.6884 20.0336ZM43.7005 18.1279C44.1267 18.1279 44.4825 18.0124 44.7679 17.7815C45.0534 17.5466 45.2685 17.2271 45.4132 16.8228C45.562 16.4186 45.6364 15.9586 45.6364 15.4427C45.6364 14.9267 45.562 14.4668 45.4132 14.0625C45.2685 13.6583 45.0534 13.3387 44.7679 13.1038C44.4825 12.8691 44.1267 12.7516 43.7005 12.7516C43.2702 12.7516 42.9084 12.8691 42.615 13.1038C42.3255 13.3387 42.1063 13.6583 41.9576 14.0625C41.8129 14.4668 41.7405 14.9267 41.7405 15.4427C41.7405 15.9586 41.8129 16.4186 41.9576 16.8228C42.1063 17.2271 42.3255 17.5466 42.615 17.7815C42.9084 18.0124 43.2702 18.1279 43.7005 18.1279ZM52.4874 14.7324V19.8604H49.9183V10.9903H52.3667V12.5552H52.4754C52.6803 12.0394 53.0241 11.6313 53.5066 11.331C53.9891 11.0269 54.574 10.8748 55.2616 10.8748C55.9048 10.8748 56.4657 11.0096 56.9442 11.2791C57.4225 11.5485 57.7945 11.9336 58.0598 12.4341C58.3252 12.9306 58.4579 13.5235 58.4579 14.2127V19.8604H55.8888V14.6515C55.8928 14.1087 55.7481 13.6852 55.4545 13.3811C55.161 13.0731 54.7569 12.9191 54.2424 12.9191C53.8966 12.9191 53.591 12.9903 53.3257 13.1327C53.0643 13.2752 52.8592 13.4831 52.7105 13.7565C52.5658 14.0259 52.4914 14.3513 52.4874 14.7324ZM65.4098 10.9903V12.8382H59.8314V10.9903H65.4098ZM61.0979 8.8652H63.667V17.1347C63.667 17.3618 63.7032 17.5389 63.7755 17.6659C63.8479 17.7892 63.9484 17.8758 64.077 17.9258C64.2097 17.9758 64.3626 18.0009 64.5354 18.0009C64.656 18.0009 64.7766 17.9913 64.8973 17.972C65.0178 17.9489 65.1104 17.9316 65.1747 17.92L65.5787 19.7506C65.45 19.7891 65.2691 19.8334 65.036 19.8835C64.8028 19.9374 64.5193 19.9702 64.1857 19.9817C63.5665 20.0047 63.0236 19.9259 62.5573 19.7449C62.0949 19.564 61.7351 19.2829 61.4777 18.9017C61.2205 18.5206 61.0939 18.0394 61.0979 17.458V8.8652ZM69.7249 20.0279C69.1339 20.0279 68.6072 19.9297 68.1449 19.7333C67.6824 19.5331 67.3166 19.2386 67.0472 18.8498C66.7819 18.4571 66.6492 17.9681 66.6492 17.3829C66.6492 16.8902 66.7437 16.4764 66.9326 16.1414C67.1217 15.8065 67.3789 15.537 67.7046 15.3329C68.0302 15.1289 68.4001 14.975 68.8143 14.871C69.2324 14.7671 69.6706 14.6939 70.129 14.6515C70.6678 14.5977 71.102 14.5476 71.4316 14.5013C71.7613 14.4513 72.0005 14.3782 72.1493 14.2819C72.2981 14.1857 72.3724 14.0433 72.3724 13.8546V13.8199C72.3724 13.4543 72.2519 13.1713 72.0106 12.971C71.7734 12.7709 71.4356 12.6708 70.9974 12.6708C70.5351 12.6708 70.1671 12.769 69.8937 12.9653C69.6204 13.1578 69.4394 13.4003 69.351 13.6929L66.9748 13.5081C67.0955 12.9691 67.3327 12.5033 67.6865 12.1106C68.0403 11.7141 68.4967 11.4099 69.0555 11.1982C69.6184 10.9826 70.2697 10.8748 71.0094 10.8748C71.5241 10.8748 72.0166 10.9326 72.487 11.0481C72.9615 11.1636 73.3816 11.3426 73.7474 11.5851C74.1174 11.8276 74.4088 12.1395 74.6219 12.5207C74.835 12.898 74.9415 13.3502 74.9415 13.8777V19.8604H72.5051V18.6304H72.4328C72.2839 18.9075 72.085 19.152 71.8357 19.3637C71.5864 19.5716 71.2869 19.7353 70.9371 19.8546C70.5873 19.9702 70.1833 20.0279 69.7249 20.0279ZM70.4607 18.3301C70.8386 18.3301 71.1723 18.2588 71.4618 18.1164C71.7512 17.9701 71.9784 17.7738 72.1432 17.5274C72.3081 17.281 72.3906 17.0018 72.3906 16.69V15.7488C72.3101 15.7988 72.1995 15.845 72.0588 15.8873C71.9221 15.9258 71.7674 15.9624 71.5945 15.9971C71.4216 16.0278 71.2487 16.0567 71.0758 16.0837C70.9029 16.1067 70.7462 16.128 70.6054 16.1472C70.3039 16.1895 70.0406 16.2569 69.8153 16.3493C69.5902 16.4417 69.4153 16.5668 69.2907 16.7247C69.1661 16.8787 69.1037 17.0712 69.1037 17.3022C69.1037 17.637 69.2303 17.8932 69.4837 18.0702C69.741 18.2435 70.0666 18.3301 70.4607 18.3301ZM85.2392 10.9903L82.0005 19.8604H79.1058L75.8673 10.9903H78.5811L80.505 17.3368H80.6015L82.5192 10.9903H85.2392ZM90.4407 20.0336C89.504 20.0336 88.6937 19.8431 88.0103 19.462C87.3309 19.0769 86.8062 18.5418 86.4362 17.8566C86.0664 17.1674 85.8815 16.3686 85.8815 15.46C85.8815 14.5437 86.0664 13.743 86.4362 13.0576C86.8062 12.3686 87.3309 11.8334 88.0103 11.4523C88.6937 11.0673 89.504 10.8748 90.4407 10.8748C91.3775 10.8748 92.1856 11.0673 92.8651 11.4523C93.5486 11.8334 94.0753 12.3686 94.4451 13.0576C94.8151 13.743 95 14.5437 95 15.46C95 16.3686 94.8151 17.1674 94.4451 17.8566C94.0753 18.5418 93.5486 19.0769 92.8651 19.462C92.1856 19.8431 91.3775 20.0336 90.4407 20.0336ZM90.4528 18.1279C90.879 18.1279 91.2348 18.0124 91.5202 17.7815C91.8057 17.5466 92.0208 17.2271 92.1655 16.8228C92.3143 16.4186 92.3887 15.9586 92.3887 15.4427C92.3887 14.9267 92.3143 14.4668 92.1655 14.0625C92.0208 13.6583 91.8057 13.3387 91.5202 13.1038C91.2348 12.8691 90.879 12.7516 90.4528 12.7516C90.0225 12.7516 89.6607 12.8691 89.3673 13.1038C89.0777 13.3387 88.8586 13.6583 88.7099 14.0625C88.5651 14.4668 88.4928 14.9267 88.4928 15.4427C88.4928 15.9586 88.5651 16.4186 88.7099 16.8228C88.8586 17.2271 89.0777 17.5466 89.3673 17.7815C89.6607 18.0124 90.0225 18.1279 90.4528 18.1279Z" fill="#0F172A"/>
<defs>
<linearGradient id="paint0_linear_200_54" x1="9.93728" y1="2.47908e-05" x2="22.7526" y2="31.6269" gradientUnits="userSpaceOnUse">
<stop offset="0.426708" stop-color="#0ACDB5"/>
<stop offset="0.610188" stop-color="#A6BB49"/>
<stop offset="0.766408" stop-color="#FE911F"/>
</linearGradient>
<linearGradient id="paint1_linear_200_54" x1="7.58534" y1="12.2484" x2="7.58534" y2="19.4807" gradientUnits="userSpaceOnUse">
<stop stop-color="#0ACDB5"/>
<stop offset="1" stop-color="#FE911F"/>
</linearGradient>
<linearGradient id="paint2_linear_200_54" x1="12.7011" y1="9.21546" x2="12.7011" y2="19.4807" gradientUnits="userSpaceOnUse">
<stop stop-color="#0ACDB5"/>
<stop offset="1" stop-color="#FE911F"/>
</linearGradient>
<linearGradient id="paint3_linear_200_54" x1="17.9928" y1="5.48261" x2="17.9928" y2="19.4807" gradientUnits="userSpaceOnUse">
<stop stop-color="#0ACDB5"/>
<stop offset="1" stop-color="#FE911F"/>
</linearGradient>
</defs>
</svg>
